<?xml version="1.0" encoding="utf-8"?>
<!-- Generator: Adobe Illustrator 26.2.1, SVG Export Plug-In . SVG Version: 6.00 Build 0)  -->
<svg version="1.1" id="Layer_1" xmlns="http://www.w3.org/2000/svg" xmlns:xlink="http://www.w3.org/1999/xlink" x="0px" y="0px"
	 viewBox="0 0 86.3 154.4" style="enable-background:new 0 0 86.3 154.4;" xml:space="preserve">
<g id="Layer_2_00000149380436189706588360000018121820850681025926_">
	<g id="Layer_1-2">
		<polygon points="83.7,105.5 83.7,33.7 42.4,3.1 2.5,33.8 2.5,105.2 67.6,67.8 67.6,42.1 42.3,24.3 18.7,42.2 18.7,62.6 42.4,62.6 
			42.4,56.5 24.7,56.5 24.7,45.2 42.5,31.8 61.5,45.2 61.5,64.3 8.6,94.8 8.6,36.7 42.4,10.6 77.6,36.8 77.6,94.5 57.4,81.5 
			51.5,84.9 83.7,105.5 		"/>
		<g>
			<path d="M29.4,106.9h3c1.4,0,2.4,0.8,2.4,2.1c0,0.6-0.3,1.2-0.9,1.5c0.8,0.2,1.3,1,1.3,1.8c0,1.4-1.1,2.3-2.8,2.3h-3.1V106.9z
				 M32.2,109.8c0.3,0.1,0.7-0.1,0.8-0.4c0.1-0.3-0.1-0.7-0.4-0.8c-0.1,0-0.3,0-0.4,0h-0.8v1.2H32.2z M32.4,112.9
				c0.5,0,0.9-0.2,0.9-0.7c0-0.5-0.4-0.7-0.9-0.7h-1v1.4L32.4,112.9z"/>
			<path d="M37.4,106.9h4.7v1.9h-2.6v1h2.3v1.8h-2.3v1.1h2.6v1.9h-4.7L37.4,106.9z"/>
			<path d="M45.5,111.9c0.2,0.5,0.7,0.9,1.3,0.9c0.4,0,0.7-0.2,0.7-0.5c0-0.3-0.2-0.4-0.6-0.5l-0.9-0.3c-1.1-0.4-1.9-1.1-1.9-2.3
				c0-1.4,1.1-2.5,2.4-2.5c0.1,0,0.1,0,0.2,0c1.2,0,2.2,0.6,2.8,1.6l-1.7,1c-0.2-0.4-0.6-0.7-1.1-0.7c-0.4,0-0.6,0.2-0.6,0.5
				c0,0.3,0.2,0.4,0.5,0.5l1,0.4c1.3,0.5,1.9,1.2,1.9,2.2c0,1.6-1.4,2.5-2.8,2.5c-1.3,0-2.4-0.7-3-1.8L45.5,111.9z"/>
			<path d="M51,106.9h5.8v1.9h-1.9v5.7h-2.1v-5.7H51V106.9z"/>
		</g>
		<g>
			<path d="M4.6,126.8L2,119.1h2.1l1.4,4.6l1.4-4.6h1.8l1.4,4.6l1.4-4.6h2.1l-2.6,7.6H9.2l-1.4-4.6l-1.4,4.6H4.6z"/>
			<path d="M18.7,126.9c-2.2,0-3.9-1.9-3.9-4.1c0-2.2,1.9-3.9,4.1-3.9c2.2,0,3.9,1.8,3.9,4C22.8,125.2,21,126.9,18.7,126.9
				C18.7,126.9,18.7,126.9,18.7,126.9z M18.7,121c-1.1,0-2,0.9-2,2c0,1.1,0.9,2,2,2s2-0.9,2-2C20.7,121.8,19.8,121,18.7,121z"/>
			<path d="M26.9,126.8h-2v-7.6h2.7c1.8,0,3,0.9,3,2.6c0,1-0.5,1.8-1.4,2.2l2,2.8h-2.4l-1.6-2.5h-0.2L26.9,126.8z M26.9,122.6h0.7
				c0.5,0.1,0.9-0.3,0.9-0.7c0.1-0.5-0.3-0.9-0.7-0.9c-0.1,0-0.1,0-0.2,0h-0.7V122.6z"/>
			<path d="M34.9,122l2.2-2.9h2.4l-2.9,3.6l3.1,4h-2.6l-2.2-3.1v3.1h-2.1v-7.6h2.1L34.9,122z"/>
			<path d="M47.2,121.8c0,1.7-1.2,2.6-3,2.6h-0.7v2.4h-2.1v-7.6h2.7C45.9,119.1,47.2,120.1,47.2,121.8z M43.4,122.6h0.7
				c0.5,0.1,0.9-0.3,0.9-0.7c0.1-0.5-0.3-0.9-0.7-0.9c-0.1,0-0.1,0-0.2,0h-0.7V122.6z"/>
			<path d="M51.1,119.1v5.7h2.6v2H49v-7.7H51.1z"/>
			<path d="M60,119.1l3,7.6h-2.1l-0.5-1.3h-2.7l-0.5,1.3h-2.1l3-7.6L60,119.1z M58.3,123.7h1.5l-0.8-2.1L58.3,123.7z"/>
			<path d="M68.1,119c0.6,0,1.2,0.2,1.8,0.5v2.1c-0.5-0.4-1.1-0.6-1.7-0.6c-1.1,0-2,0.9-2,2c0,1.1,0.9,2,2,2c0.6,0,1.2-0.2,1.7-0.6
				v2.1c-1.9,1-4.3,0.3-5.3-1.7c-0.3-0.6-0.4-1.2-0.4-1.8c-0.1-2.2,1.6-3.9,3.8-4C68,119,68,119,68.1,119z"/>
			<path d="M72,119.1h4.7v1.9h-2.6v1h2.4v1.8h-2.4v1.1h2.6v1.9H72L72,119.1z"/>
			<path d="M80.1,124.1c0.2,0.5,0.7,0.9,1.3,0.9c0.4,0,0.7-0.2,0.7-0.5c0-0.2-0.2-0.4-0.6-0.5l-0.9-0.3c-1.1-0.4-1.9-1.1-1.9-2.3
				c0-1.4,1.1-2.4,2.4-2.4c0.1,0,0.1,0,0.2,0c1.2,0,2.2,0.6,2.8,1.6l-1.7,1c-0.2-0.4-0.6-0.7-1.1-0.8c-0.4,0-0.6,0.2-0.6,0.4
				s0.2,0.4,0.5,0.5l1,0.4c1.3,0.5,1.9,1.2,1.9,2.2c0,1.6-1.4,2.5-2.8,2.5c-1.3,0-2.4-0.7-3-1.8L80.1,124.1z"/>
		</g>
		<g>
			<path d="M32.8,139h-2.1v-7.6h4.5v1.9h-2.5v1.1H35v1.9h-2.2V139z"/>
			<path d="M40.9,139.1c-2.2,0-3.9-1.9-3.9-4c0-2.2,1.9-3.9,4-3.9c2.2,0,3.9,1.8,3.9,4C44.9,137.3,43.1,139.1,40.9,139.1
				C40.9,139.1,40.9,139.1,40.9,139.1z M40.9,133.2c-1.1,0-2,0.9-2,2c0,1.1,0.9,2,2,2c1.1,0,2-0.9,2-2C42.9,134,42,133.2,40.9,133.2
				z"/>
			<path d="M49.1,139h-2v-7.6h2.7c1.8,0,3,0.9,3,2.6c0,1-0.5,1.8-1.4,2.2l2,2.8h-2.4l-1.6-2.5h-0.2L49.1,139z M49.1,134.8h0.7
				c0.5,0.1,0.9-0.3,0.9-0.7c0.1-0.5-0.3-0.9-0.7-0.9c-0.1,0-0.1,0-0.2,0h-0.7V134.8z"/>
		</g>
		<g>
			<path d="M6.1,143.5v7.6H4.1v-7.6H6.1z"/>
			<path d="M15.6,143.5v7.6h-2.1l-3-4.3v4.3h-2v-7.6h2.1l2.9,4.4v-4.4H15.6z"/>
			<path d="M25,143.5v7.6h-2.1l-3-4.3v4.3h-2v-7.6H20l2.9,4.4v-4.4H25z"/>
			<path d="M31.1,151.3c-2.2,0-3.9-1.9-3.9-4c0-2.2,1.9-3.9,4-3.9c2.2,0,3.9,1.8,3.9,4C35.1,149.6,33.3,151.4,31.1,151.3
				C31.1,151.3,31.1,151.3,31.1,151.3z M31.1,145.4c-1.1,0-2,0.9-2,2c0,1.1,0.9,2,2,2s2-0.9,2-2C33,146.3,32.2,145.4,31.1,145.4
				C31.1,145.4,31.1,145.4,31.1,145.4L31.1,145.4z"/>
			<path d="M39,151.2l-2.9-7.6h2.2l1.7,4.6l1.6-4.6h2.1l-2.9,7.6L39,151.2z"/>
			<path d="M48.5,143.5l3,7.6h-2.1l-0.5-1.3h-2.7l-0.5,1.3h-2.1l3-7.6L48.5,143.5z M46.8,148.1h1.5l-0.8-2.1L46.8,148.1z"/>
			<path d="M51.8,143.5h5.8v1.9h-1.9v5.7h-2.1v-5.7h-1.9V143.5z"/>
			<path d="M62.7,151.3c-2.2,0-3.9-1.9-3.9-4.1c0-2.2,1.9-3.9,4.1-3.9c2.2,0,3.9,1.8,3.9,4C66.8,149.6,65,151.4,62.7,151.3
				C62.8,151.3,62.8,151.3,62.7,151.3z M62.7,145.4c-1.1,0-2,0.9-2,2c0,1.1,0.9,2,2,2c1.1,0,2-0.9,2-2
				C64.7,146.3,63.9,145.4,62.7,145.4C62.8,145.4,62.8,145.4,62.7,145.4L62.7,145.4z"/>
			<path d="M70.9,151.2h-2v-7.6h2.7c1.8,0,3,0.9,3,2.6c0,1-0.5,1.8-1.4,2.2l2,2.8h-2.4l-1.6-2.5h-0.2L70.9,151.2z M70.9,147h0.7
				c0.5,0.1,0.9-0.3,0.9-0.7c0.1-0.5-0.3-0.9-0.7-0.9c-0.1,0-0.1,0-0.2,0h-0.7V147z"/>
			<path d="M78,148.5c0.2,0.5,0.7,0.9,1.3,0.9c0.4,0,0.7-0.2,0.7-0.5c0-0.2-0.2-0.4-0.6-0.5l-0.9-0.3c-1.1-0.4-1.9-1.1-1.9-2.3
				c0-1.4,1.1-2.5,2.5-2.5c0.1,0,0.1,0,0.2,0c1.2,0,2.2,0.6,2.8,1.6l-1.7,1c-0.2-0.4-0.6-0.7-1.1-0.8c-0.4,0-0.6,0.2-0.6,0.4
				c0,0.3,0.2,0.4,0.5,0.5l1,0.4c1.3,0.5,1.9,1.2,1.9,2.2c0,1.6-1.4,2.5-2.8,2.5c-1.3,0-2.4-0.7-3-1.8L78,148.5z"/>
		</g>
	</g>
</g>
</svg>
